<?xml version="1.0" encoding="utf-8"?>
<!-- Generator: Adobe Illustrator 26.3.0, SVG Export Plug-In . SVG Version: 6.00 Build 0)  -->
<svg version="1.1" id="Layer_1" xmlns="http://www.w3.org/2000/svg" xmlns:xlink="http://www.w3.org/1999/xlink" x="0px" y="0px"
	 viewBox="0 0 320 512" style="enable-background:new 0 0 320 512;" xml:space="preserve">
<style type="text/css">
	.st0{fill:#FFFFFF;}
</style>
<path class="st0" d="M228.7,214.1c5.7,5.7,5.7,14.9,0,20.6c-2.8,2.9-6.6,4.3-10.3,4.3s-7.5-1.4-10.3-4.3L160,186.7l-48.1,48
	c-2.9,2.9-6.6,4.3-10.3,4.3s-7.5-1.4-10.3-4.3c-5.7-5.7-5.7-14.9,0-20.6l48.1-48.1l-48.1-48.1c-5.7-5.7-5.7-14.9,0-20.6
	c5.7-5.7,14.9-5.7,20.6,0l48.1,48.1l48.1-48.1c5.7-5.7,14.9-5.7,20.6,0c5.7,5.7,5.7,14.9,0,20.6L180.6,166L228.7,214.1z"/>
</svg>
